<svg xmlns="http://www.w3.org/2000/svg" viewBox="0 0 32 32" fill="none">
  <!-- Background circle -->
  <rect width="32" height="32" rx="8" fill="#4A90A4"/>
  <!-- Waves (Lucide Waves icon, scaled to fit 32x32, stroke white) -->
  <g transform="translate(4, 6) scale(1)">
    <path d="M2 4c.4.33.8.67 1.67.67C5.33 4.67 5.33 3 7 3s1.6 1.33 3.33 1.33C12 4.33 12 3 13.67 3c.87 0 1.27.33 1.67.67" stroke="white" stroke-width="1.6" stroke-linecap="round" stroke-linejoin="round"/>
    <path d="M2 8.5c.4.33.8.67 1.67.67C5.33 9.17 5.33 7.5 7 7.5s1.6 1.67 3.33 1.67C12 9.17 12 7.5 13.67 7.5c.87 0 1.27.33 1.67.67" stroke="white" stroke-width="1.6" stroke-linecap="round" stroke-linejoin="round"/>
    <path d="M2 13c.4.33.8.67 1.67.67C5.33 13.67 5.33 12 7 12s1.6 1.67 3.33 1.67C12 13.67 12 12 13.67 12c.87 0 1.27.33 1.67.67" stroke="white" stroke-width="1.6" stroke-linecap="round" stroke-linejoin="round"/>
  </g>
</svg>
